<mxfile host="app.diagrams.net" modified="2024-06-30T20:49:59.185Z" agent="Mozilla/5.0 (Windows NT 10.0; Win64; x64) AppleWebKit/537.36 (KHTML, like Gecko) Chrome/126.0.0.0 Safari/537.36 Edg/126.0.0.0" version="24.6.4" etag="genOax2GD2ok4DK0gxeK" type="github">
  <diagram name="Page-1" id="9tIR_WNy-8FNA9W3IKCW">
    <mxGraphModel>
      <root>
        <mxCell id="0" />
        <mxCell id="1" parent="0" />
      </root>
    </mxGraphModel>
  </diagram>
</mxfile>
